<?xml version="1.0" standalone="no"?>
<svg xmlns:xlink="http://www.w3.org/1999/xlink" id="wave" style="transform:rotate(0deg); transition: 0.3s" viewBox="0 0 1440 230" version="1.1" xmlns="http://www.w3.org/2000/svg"><defs><linearGradient id="sw-gradient-0" x1="0" x2="0" y1="1" y2="0"><stop stop-color="rgba(0, 159.105, 255, 1)" offset="0%"/><stop stop-color="rgba(255, 255, 255, 1)" offset="100%"/></linearGradient></defs><path style="transform:translate(0, 0px); opacity:1" fill="url(#sw-gradient-0)" d="M0,92L10.4,107.3C20.9,123,42,153,63,153.3C83.5,153,104,123,125,95.8C146.1,69,167,46,188,53.7C208.7,61,230,100,250,118.8C271.3,138,292,138,313,118.8C333.9,100,355,61,376,69C396.5,77,417,130,438,134.2C459.1,138,480,92,501,72.8C521.7,54,543,61,563,88.2C584.3,115,605,161,626,176.3C647,192,668,176,689,157.2C709.6,138,730,115,751,118.8C772.2,123,793,153,814,161C834.8,169,856,153,877,130.3C897.4,107,918,77,939,80.5C960,84,981,123,1002,118.8C1022.6,115,1043,69,1064,49.8C1085.2,31,1106,38,1127,42.2C1147.8,46,1169,46,1190,65.2C1210.4,84,1231,123,1252,115C1273,107,1294,54,1315,49.8C1335.7,46,1357,92,1377,126.5C1398.3,161,1419,184,1440,187.8C1460.9,192,1482,176,1492,168.7L1502.6,161L1502.6,230L1492.2,230C1481.7,230,1461,230,1440,230C1419.1,230,1398,230,1377,230C1356.5,230,1336,230,1315,230C1293.9,230,1273,230,1252,230C1231.3,230,1210,230,1190,230C1168.7,230,1148,230,1127,230C1106.1,230,1085,230,1064,230C1043.5,230,1023,230,1002,230C980.9,230,960,230,939,230C918.3,230,897,230,877,230C855.7,230,835,230,814,230C793,230,772,230,751,230C730.4,230,710,230,689,230C667.8,230,647,230,626,230C605.2,230,584,230,563,230C542.6,230,522,230,501,230C480,230,459,230,438,230C417.4,230,397,230,376,230C354.8,230,334,230,313,230C292.2,230,271,230,250,230C229.6,230,209,230,188,230C167,230,146,230,125,230C104.3,230,83,230,63,230C41.7,230,21,230,10,230L0,230Z"/></svg>