<?xml version="1.0" standalone="no"?>
<svg xmlns:xlink="http://www.w3.org/1999/xlink" id="wave" style="transform:rotate(0deg); transition: 0.3s" viewBox="0 0 1440 280" version="1.1" xmlns="http://www.w3.org/2000/svg"><defs><linearGradient id="sw-gradient-0" x1="0" x2="0" y1="1" y2="0"><stop stop-color="rgba(62, 101.348, 243, 1)" offset="0%"/><stop stop-color="rgba(227.085, 243.075, 238.796, 1)" offset="100%"/></linearGradient></defs><path style="transform:translate(0, 0px); opacity:1" fill="url(#sw-gradient-0)" d="M0,196L12,205.3C24,215,48,233,72,224C96,215,120,177,144,158.7C168,140,192,140,216,130.7C240,121,264,103,288,79.3C312,56,336,28,360,46.7C384,65,408,131,432,144.7C456,159,480,121,504,116.7C528,112,552,140,576,144.7C600,149,624,131,648,112C672,93,696,75,720,84C744,93,768,131,792,144.7C816,159,840,149,864,121.3C888,93,912,47,936,65.3C960,84,984,168,1008,191.3C1032,215,1056,177,1080,168C1104,159,1128,177,1152,177.3C1176,177,1200,159,1224,144.7C1248,131,1272,121,1296,98C1320,75,1344,37,1368,51.3C1392,65,1416,131,1440,144.7C1464,159,1488,121,1512,130.7C1536,140,1560,196,1584,191.3C1608,187,1632,121,1656,116.7C1680,112,1704,168,1716,196L1728,224L1728,280L1716,280C1704,280,1680,280,1656,280C1632,280,1608,280,1584,280C1560,280,1536,280,1512,280C1488,280,1464,280,1440,280C1416,280,1392,280,1368,280C1344,280,1320,280,1296,280C1272,280,1248,280,1224,280C1200,280,1176,280,1152,280C1128,280,1104,280,1080,280C1056,280,1032,280,1008,280C984,280,960,280,936,280C912,280,888,280,864,280C840,280,816,280,792,280C768,280,744,280,720,280C696,280,672,280,648,280C624,280,600,280,576,280C552,280,528,280,504,280C480,280,456,280,432,280C408,280,384,280,360,280C336,280,312,280,288,280C264,280,240,280,216,280C192,280,168,280,144,280C120,280,96,280,72,280C48,280,24,280,12,280L0,280Z"/><defs><linearGradient id="sw-gradient-1" x1="0" x2="0" y1="1" y2="0"><stop stop-color="rgba(83.681, 189.669, 253.549, 1)" offset="0%"/><stop stop-color="rgba(189.537, 230.641, 230.781, 1)" offset="100%"/></linearGradient></defs><path style="transform:translate(0, 50px); opacity:0.9" fill="url(#sw-gradient-1)" d="M0,56L12,70C24,84,48,112,72,121.3C96,131,120,121,144,121.3C168,121,192,131,216,154C240,177,264,215,288,205.3C312,196,336,140,360,102.7C384,65,408,47,432,42C456,37,480,47,504,46.7C528,47,552,37,576,70C600,103,624,177,648,214.7C672,252,696,252,720,252C744,252,768,252,792,210C816,168,840,84,864,65.3C888,47,912,93,936,116.7C960,140,984,140,1008,121.3C1032,103,1056,65,1080,42C1104,19,1128,9,1152,28C1176,47,1200,93,1224,112C1248,131,1272,121,1296,130.7C1320,140,1344,168,1368,186.7C1392,205,1416,215,1440,196C1464,177,1488,131,1512,93.3C1536,56,1560,28,1584,37.3C1608,47,1632,93,1656,126C1680,159,1704,177,1716,186.7L1728,196L1728,280L1716,280C1704,280,1680,280,1656,280C1632,280,1608,280,1584,280C1560,280,1536,280,1512,280C1488,280,1464,280,1440,280C1416,280,1392,280,1368,280C1344,280,1320,280,1296,280C1272,280,1248,280,1224,280C1200,280,1176,280,1152,280C1128,280,1104,280,1080,280C1056,280,1032,280,1008,280C984,280,960,280,936,280C912,280,888,280,864,280C840,280,816,280,792,280C768,280,744,280,720,280C696,280,672,280,648,280C624,280,600,280,576,280C552,280,528,280,504,280C480,280,456,280,432,280C408,280,384,280,360,280C336,280,312,280,288,280C264,280,240,280,216,280C192,280,168,280,144,280C120,280,96,280,72,280C48,280,24,280,12,280L0,280Z"/><defs><linearGradient id="sw-gradient-2" x1="0" x2="0" y1="1" y2="0"><stop stop-color="rgba(79.419, 182.636, 221.674, 1)" offset="0%"/><stop stop-color="rgba(52.483, 213.147, 255, 1)" offset="100%"/></linearGradient></defs><path style="transform:translate(0, 100px); opacity:0.8" fill="url(#sw-gradient-2)" d="M0,140L12,130.7C24,121,48,103,72,116.7C96,131,120,177,144,191.3C168,205,192,187,216,158.7C240,131,264,93,288,88.7C312,84,336,112,360,144.7C384,177,408,215,432,210C456,205,480,159,504,121.3C528,84,552,56,576,37.3C600,19,624,9,648,23.3C672,37,696,75,720,116.7C744,159,768,205,792,186.7C816,168,840,84,864,65.3C888,47,912,93,936,102.7C960,112,984,84,1008,88.7C1032,93,1056,131,1080,130.7C1104,131,1128,93,1152,107.3C1176,121,1200,187,1224,219.3C1248,252,1272,252,1296,247.3C1320,243,1344,233,1368,224C1392,215,1416,205,1440,168C1464,131,1488,65,1512,37.3C1536,9,1560,19,1584,32.7C1608,47,1632,65,1656,79.3C1680,93,1704,103,1716,107.3L1728,112L1728,280L1716,280C1704,280,1680,280,1656,280C1632,280,1608,280,1584,280C1560,280,1536,280,1512,280C1488,280,1464,280,1440,280C1416,280,1392,280,1368,280C1344,280,1320,280,1296,280C1272,280,1248,280,1224,280C1200,280,1176,280,1152,280C1128,280,1104,280,1080,280C1056,280,1032,280,1008,280C984,280,960,280,936,280C912,280,888,280,864,280C840,280,816,280,792,280C768,280,744,280,720,280C696,280,672,280,648,280C624,280,600,280,576,280C552,280,528,280,504,280C480,280,456,280,432,280C408,280,384,280,360,280C336,280,312,280,288,280C264,280,240,280,216,280C192,280,168,280,144,280C120,280,96,280,72,280C48,280,24,280,12,280L0,280Z"/></svg>