<?xml version="1.0" standalone="no"?>
<svg xmlns:xlink="http://www.w3.org/1999/xlink" id="wave" style="transform:rotate(0deg); transition: 0.3s" viewBox="0 0 1440 280" version="1.1" xmlns="http://www.w3.org/2000/svg"><defs><linearGradient id="sw-gradient-0" x1="0" x2="0" y1="1" y2="0"><stop stop-color="rgba(62, 243, 231.349, 1)" offset="0%"/><stop stop-color="rgba(227.085, 243.075, 238.796, 1)" offset="100%"/></linearGradient></defs><path style="transform:translate(0, 0px); opacity:1" fill="url(#sw-gradient-0)" d="M0,224L12,200.7C24,177,48,131,72,126C96,121,120,159,144,168C168,177,192,159,216,144.7C240,131,264,121,288,140C312,159,336,205,360,224C384,243,408,233,432,228.7C456,224,480,224,504,186.7C528,149,552,75,576,65.3C600,56,624,112,648,121.3C672,131,696,93,720,88.7C744,84,768,112,792,140C816,168,840,196,864,196C888,196,912,168,936,144.7C960,121,984,103,1008,102.7C1032,103,1056,121,1080,112C1104,103,1128,65,1152,60.7C1176,56,1200,84,1224,107.3C1248,131,1272,149,1296,130.7C1320,112,1344,56,1368,70C1392,84,1416,168,1440,191.3C1464,215,1488,177,1512,135.3C1536,93,1560,47,1584,65.3C1608,84,1632,168,1656,200.7C1680,233,1704,215,1716,205.3L1728,196L1728,280L1716,280C1704,280,1680,280,1656,280C1632,280,1608,280,1584,280C1560,280,1536,280,1512,280C1488,280,1464,280,1440,280C1416,280,1392,280,1368,280C1344,280,1320,280,1296,280C1272,280,1248,280,1224,280C1200,280,1176,280,1152,280C1128,280,1104,280,1080,280C1056,280,1032,280,1008,280C984,280,960,280,936,280C912,280,888,280,864,280C840,280,816,280,792,280C768,280,744,280,720,280C696,280,672,280,648,280C624,280,600,280,576,280C552,280,528,280,504,280C480,280,456,280,432,280C408,280,384,280,360,280C336,280,312,280,288,280C264,280,240,280,216,280C192,280,168,280,144,280C120,280,96,280,72,280C48,280,24,280,12,280L0,280Z"/></svg>